# xmcd CD database file
#
# Track frame offsets:
#	150
#	13879
#	28437
#	39224
#	52140
#	65175
#	88418
#	102163
#	116675
#	129289
#	141811
#	154781
#	169841
#	184055
#	197258
#
# Disc length: 2799 seconds
#
# Revision: 0
# Processed by: cddbd v1.5.1PL2 Copyright (c) Steve Scherf et al.
# Submitted via: CDex 1.51
#
DISCID=d60aed0f
DTITLE=Ella Fitzgerald - Airmail Special - Quadromania Disk 4 (1952-1954)
DYEAR=2005
DGENRE=Jazz
TTITLE0=Airmail Special - 1952
TTITLE1=Rough Ridin' - 1952
TTITLE2=Goody Goody - 1952
TTITLE3=A Guy Is A Guy - 1952
TTITLE4=Angel Eyes - 1952
TTITLE5=You'll Have To Swing It (Mr. Paganini) - 1952
TTITLE6=Preview - 1952
TTITLE7=Early Autumn - 1952
TTITLE8=Careless - 1953
TTITLE9=Blue Lou - 1953
TTITLE10=Melancholy Me- 1953
TTITLE11=What Is There To Say - 1954
TTITLE12=I Wished On The Moon - 1954
TTITLE13=Until The Real Thing Comes Along - 1954
TTITLE14=Lullaby Of Birdland - 1954
EXTD=YEAR: 2005
EXTT0=
EXTT1=
EXTT2=
EXTT3=
EXTT4=
EXTT5=
EXTT6=
EXTT7=
EXTT8=
EXTT9=
EXTT10=
EXTT11=
EXTT12=
EXTT13=
EXTT14=
PLAYORDER=
